<svg width="64" height="64" viewBox="0 0 64 64" fill="none" xmlns="http://www.w3.org/2000/svg">
  <rect width="64" height="64" rx="16" fill="#F7EEE8"/>
  <path d="M23 10C23 7.79086 24.7909 6 27 6H37C39.2091 6 41 7.79086 41 10V22H23V10Z" fill="#35252A"/>
  <path d="M18 27C18 23.6863 20.6863 21 24 21H40C43.3137 21 46 23.6863 46 27V50C46 54.4183 42.4183 58 38 58H26C21.5817 58 18 54.4183 18 50V27Z" fill="#7A3F52"/>
  <path d="M23 29C23 27.3431 24.3431 26 26 26H38C39.6569 26 41 27.3431 41 29V47C41 50.3137 38.3137 53 35 53H29C25.6863 53 23 50.3137 23 47V29Z" fill="#DDAAB8"/>
  <path d="M32 30C35.3137 30 38 32.6863 38 36V44C38 47.3137 35.3137 50 32 50C28.6863 50 26 47.3137 26 44V36C26 32.6863 28.6863 30 32 30Z" fill="#FFF9F5"/>
  <path d="M50.5 8L52.285 12.715L57 14.5L52.285 16.285L50.5 21L48.715 16.285L44 14.5L48.715 12.715L50.5 8Z" fill="#C68B42"/>
</svg>
